<svg width="523" height="146" viewBox="0 0 523 146" fill="none" xmlns="http://www.w3.org/2000/svg">
<g clip-path="url(#clip0_2_2668)">
<path d="M342.89 110.425C329.19 126.645 310 136.935 286.18 135.955C270.36 135.305 255.95 129.875 244.5 121.235L248.6 119.825C249.96 119.355 250.02 117.455 248.68 116.905L222.09 106.125C220.81 105.605 219.53 106.895 220.07 108.175L231.04 134.175C231.59 135.475 233.44 135.435 233.93 134.115L235.59 129.705C247.66 139.155 262.68 145.055 279.16 145.725C306.1 146.825 332.47 133.925 346.74 113.295C348.48 110.785 344.85 108.075 342.88 110.405L342.89 110.425Z" fill="white"/>
<path d="M347.09 37.8152L336.12 11.8152C335.57 10.5152 333.72 10.5552 333.23 11.8752L331.57 16.2852C319.5 6.83516 304.48 0.935158 288 0.265158C261.06 -0.834842 234.69 12.0652 220.42 32.6952C218.68 35.2052 222.31 37.9152 224.28 35.5852C237.98 19.3652 257.17 9.07516 280.99 10.0552C296.81 10.7052 311.22 16.1352 322.67 24.7752L318.57 26.1852C317.21 26.6552 317.15 28.5552 318.49 29.1052L345.08 39.8852C346.36 40.4052 347.64 39.1152 347.1 37.8352L347.09 37.8152Z" fill="white"/>
<path d="M233.63 73.5451C226.46 70.2951 222.87 65.0151 222.87 57.6951C222.87 52.4351 224.8 48.1651 228.68 44.8651C232.27 41.7551 236.61 40.2051 241.73 40.2051C247.47 40.2051 253.32 42.1651 259.3 46.0851L253.7 56.8451C249.64 53.9351 245.96 52.4751 242.66 52.4751C238.98 52.4751 237.14 54.0751 237.14 57.2751C237.14 58.5651 237.83 59.6451 239.22 60.5051C239.84 60.8851 241.23 61.4851 243.38 62.2951C243.76 62.4351 245.75 63.2251 249.33 64.6651C257.65 68.0051 261.8 73.5351 261.8 81.2251C261.8 86.8151 259.53 91.2651 254.99 94.5651C250.83 97.6251 245.79 99.1551 239.86 99.1551C236.37 99.1551 232.98 98.4551 229.68 97.0751C227.48 96.2151 224.57 94.6351 220.94 92.3451C222.47 89.3351 224.38 85.6251 226.68 81.2251C230.65 84.7651 234.95 86.5351 239.58 86.5351C241.78 86.5351 243.66 86.1651 245.21 85.4251C246.76 84.6851 247.54 83.6251 247.54 82.2351C247.54 80.9951 247.26 80.0551 246.68 79.4351C245.96 78.6751 244.34 77.8051 241.8 76.8551C238.36 75.5651 235.64 74.4651 233.63 73.5551V73.5451Z" fill="white"/>
<path d="M289.59 98.6451C282.95 98.6451 277.32 96.3251 272.7 91.6851C268.09 87.0551 265.78 81.6051 265.78 75.3451C265.78 68.7451 268.1 63.2451 272.73 58.8551C277.37 54.4551 283.08 52.2551 289.87 52.2551C296.66 52.2551 302.25 54.4251 306.79 58.7451C311.33 63.0751 313.6 68.5351 313.6 75.1251C313.6 81.7151 311.4 87.5051 307 91.9051C302.46 96.3951 296.65 98.6451 289.58 98.6451H289.59ZM300.35 74.9051C300.35 72.0351 299.35 69.6351 297.37 67.6951C295.38 65.7651 292.87 64.7951 289.81 64.7951C286.75 64.7951 284.08 65.8251 282.1 67.8851C280.11 69.9451 279.12 72.4951 279.12 75.5551C279.12 78.6151 280.14 81.0051 282.17 83.0151C284.2 85.0251 286.72 86.0251 289.73 86.0251C293.03 86.0251 295.62 85.0351 297.51 83.0551C299.4 81.0651 300.34 78.3551 300.34 74.9151L300.35 74.9051Z" fill="white"/>
<path d="M32.69 97.1351L14.33 73.1151V97.1351H0V42.2051H14.34V65.5851L30.4 42.2051H47.47L27.82 68.1651L51.19 97.1351H32.69Z" fill="white"/>
<path d="M69.12 53.115V97.145H55.78V55.165L69.12 53.115Z" fill="white"/>
<path d="M92.6001 64.945H77.1101V53.115H114.11L95.9701 85.375H113.25V97.135H74.3201L92.6001 64.935V64.945Z" fill="white"/>
<path d="M132.44 42.2151V97.1451H119.1V44.2651L132.44 42.2151Z" fill="white"/>
<path d="M159.39 98.2152C153.22 98.2152 148.24 96.1552 144.44 92.0152C140.64 87.8852 138.74 82.3252 138.74 75.3452C138.74 69.0852 140.79 63.6652 144.9 59.1052C149.01 54.5352 154.08 52.2552 160.1 52.2552C164.64 52.2552 168.87 54.0552 172.79 57.6352V53.1152L185.98 51.0652V97.1452H172.57V92.8452C168.98 96.4352 164.58 98.2252 159.38 98.2252L159.39 98.2152ZM173.22 75.4852C173.22 72.2852 172.21 69.6652 170.21 67.6352C168.2 65.6052 165.72 64.5952 162.76 64.5952C159.65 64.5952 157.13 65.6152 155.19 67.6352C153.26 69.6652 152.29 72.1652 152.29 75.1352C152.29 78.2852 153.19 80.8952 155.01 82.9552C156.87 85.1552 159.31 86.2552 162.32 86.2552C165.33 86.2552 167.96 85.2552 170.06 83.2452C172.16 81.2352 173.22 78.6552 173.22 75.5052V75.4852Z" fill="white"/>
<path d="M219.71 64.835C218.47 64.265 216.91 63.975 215.05 63.975C209.5 63.975 206.73 67.875 206.73 75.665V97.155H193.25V55.245L206.22 53.195V58.895C206.84 56.985 208.06 55.265 209.88 53.735C211.98 51.975 214.25 51.085 216.69 51.085H219.7V64.855L219.71 64.835Z" fill="white"/>
<path d="M346.24 64.835C345 64.265 343.44 63.975 341.58 63.975C336.03 63.975 333.26 67.875 333.26 75.665V97.155H319.78V55.245L332.75 53.195V58.895C333.37 56.985 334.59 55.265 336.41 53.735C338.51 51.975 340.78 51.085 343.22 51.085H346.23V64.855L346.24 64.835Z" fill="white"/>
<path d="M522.91 64.835C521.67 64.265 520.11 63.975 518.25 63.975C512.7 63.975 509.93 67.875 509.93 75.665V97.155H496.45V55.245L509.42 53.195V58.895C510.04 56.985 511.26 55.265 513.08 53.735C515.18 51.975 517.45 51.085 519.89 51.085H522.9V64.855L522.91 64.835Z" fill="white"/>
<path d="M349.86 78.715V55.165L363.2 53.115V78.355C363.2 80.745 363.88 82.615 365.24 83.945C366.6 85.285 368.43 85.955 370.72 85.955C373.01 85.955 374.95 85.305 376.24 84.015C377.53 82.725 378.18 80.955 378.18 78.715V55.165L391.23 53.115V79.215C391.23 85.285 389.39 89.975 385.71 93.265C382.03 96.565 376.99 98.215 370.58 98.215C364.17 98.215 359.18 96.485 355.45 93.015C351.72 89.545 349.86 84.785 349.86 78.705V78.715Z" fill="white"/>
<path d="M412.93 91.255L395.22 53.105H410.06L419.67 75.835L428.92 53.105H442.76L417.16 112.695H403.03L412.92 91.255H412.93Z" fill="white"/>
<path d="M466.27 98.6451C459.63 98.6451 454 96.3251 449.38 91.6851C444.77 87.0551 442.46 81.6051 442.46 75.3451C442.46 68.7451 444.78 63.2451 449.41 58.8551C454.05 54.4551 459.76 52.2551 466.55 52.2551C473.34 52.2551 478.93 54.4251 483.47 58.7451C488.01 63.0751 490.28 68.5351 490.28 75.1251C490.28 81.7151 488.08 87.5051 483.68 91.9051C479.14 96.3951 473.33 98.6451 466.26 98.6451H466.27ZM477.02 74.9051C477.02 72.0351 476.02 69.6351 474.04 67.6951C472.05 65.7651 469.54 64.7951 466.48 64.7951C463.42 64.7951 460.75 65.8251 458.77 67.8851C456.78 69.9451 455.79 72.4951 455.79 75.5551C455.79 78.6151 456.81 81.0051 458.84 83.0151C460.87 85.0251 463.39 86.0251 466.4 86.0251C469.7 86.0251 472.29 85.0351 474.18 83.0551C476.07 81.0651 477.01 78.3551 477.01 74.9151L477.02 74.9051Z" fill="white"/>
</g>
<defs>
<clipPath id="clip0_2_2668">
<rect width="522.91" height="145.61" fill="white" transform="translate(0 0.195068)"/>
</clipPath>
</defs>
</svg>
